<svg width="108" height="32" viewBox="0 0 108 32" fill="none" xmlns="http://www.w3.org/2000/svg">
<g clip-path="url(#clip0_484_1260)">
<path fill-rule="evenodd" clip-rule="evenodd" d="M40.8721 10.4392V22.3859H43.4321V15.7868C43.9583 16.1708 47.3005 22.1726 47.9121 22.4001H49.9458C50.3867 22.3148 50.6001 21.9592 50.5858 21.3335V10.0979H47.9121C47.9121 11.5059 47.7841 15.3601 48.0258 16.5406C47.7414 16.441 47.8409 16.5406 47.3858 15.7868L45.6223 13.0703C43.9583 10.4392 44.1858 10.1406 41.185 10.1406C40.9574 10.1263 40.8721 10.1975 40.8721 10.4392Z" fill="#00551E"/>
<path fill-rule="evenodd" clip-rule="evenodd" d="M88.3027 22.3575H90.8485L90.7632 15.7441C91.3747 16.1566 93.5934 20.4232 95.3569 22.3575H97.2485C97.7321 22.2863 97.9169 22.073 97.9169 21.4046C97.9312 19.9681 97.6894 11.6055 97.9027 11.1219C98.0165 10.7237 98.2583 10.681 98.3863 10.6526L98.4147 10.0979H95.3427V16.4979C95.0441 16.2846 91.9436 11.2926 91.8725 11.2215C91.4458 10.553 90.8485 10.1406 90.0094 10.0979H88.3027V22.3575Z" fill="#00551E"/>
<path fill-rule="evenodd" clip-rule="evenodd" d="M64.666 10.4393V21.7602C64.666 22.1584 65.0642 22.3291 65.6189 22.4002H68.0793V17.2802C68.5202 17.3939 68.2642 17.3371 68.762 18.0908L70.6393 21.0206C71.3505 22.0304 71.7771 22.3291 72.6162 22.4002H74.9487C75.1336 22.4002 75.3327 22.4002 75.546 22.4002C75.4607 22.0162 71.1798 15.5024 70.9522 15.1468C71.1087 15.0331 71.8767 14.1655 72.0189 13.9664C72.3745 13.4971 72.7727 13.2268 73.1425 12.7433C73.3842 12.4304 73.4553 12.3877 73.6829 12.1175L75.2047 10.1264C71.5922 10.1264 72.2891 9.65705 69.5158 12.9708C69.1602 13.3975 68.506 14.0659 68.0509 14.3931V10.1264H64.9505C64.7371 10.1264 64.666 10.1975 64.666 10.4393Z" fill="#00551E"/>
<path fill-rule="evenodd" clip-rule="evenodd" d="M23.1653 21.3333C23.1226 22.1156 23.5066 22.3716 24.3458 22.4H30.5324C30.9449 22.4 31.1866 22.144 31.2862 21.6462V20.1529H27.2186C26.8489 20.1813 26.6213 20.0533 26.5786 19.7262V17.1662H30.3191V14.8196H26.5786V12.4729H31.272C31.272 11.2213 31.5422 10.3538 30.632 10.1262H23.1653V21.3333Z" fill="#00551E"/>
<path fill-rule="evenodd" clip-rule="evenodd" d="M34.2588 21.8596C34.2588 22.2009 34.6428 22.4 35.0126 22.4H37.5726V10.1262H34.2588V21.8596Z" fill="#00551E"/>
<path fill-rule="evenodd" clip-rule="evenodd" d="M53.885 21.3333C53.8424 22.1156 54.2264 22.3716 55.0655 22.4H61.2521C61.6646 22.4 61.9064 22.144 62.0059 21.6462V20.1529H57.9384C57.5686 20.1813 57.341 20.0533 57.2984 19.7262V17.1662H61.0388V14.8196H57.2984V12.4729H61.9917C61.9917 11.2213 62.2619 10.3538 61.3517 10.1262H53.885V21.3333Z" fill="#00551E"/>
<path fill-rule="evenodd" clip-rule="evenodd" d="M77.2093 21.3333C77.1666 22.1156 77.5506 22.3716 78.3897 22.4H84.5764C84.9888 22.4 85.2306 22.144 85.3301 21.6462V20.1529H81.2626C80.8928 20.1813 80.6652 20.0533 80.6226 19.7262V17.1662H84.363V14.8196H80.6226V12.4729H85.3159C85.3159 11.2213 85.5861 10.3538 84.6759 10.1262H77.2093V21.3333Z" fill="#00551E"/>
<path fill-rule="evenodd" clip-rule="evenodd" d="M10.2941 11.2641L10.2514 22.2152H13.5936V16.9103H16.4807L16.4665 22.2152H19.7803V10.0979H16.4665V14.4783C16.4807 14.6775 16.3812 14.8055 16.1394 14.8055H13.9065C13.6932 14.8055 13.5936 14.7059 13.5794 14.4783V10.0979H9.73939C9.69673 10.9086 10.3225 10.553 10.2941 11.2641Z" fill="#00551E"/>
<path fill-rule="evenodd" clip-rule="evenodd" d="M5.13158 7.8506L7.47825 9.59993L6.5538 12.7857C5.64358 13.4257 4.71914 14.0799 3.82314 14.7199C3.4818 14.8337 3.4818 14.5493 3.65247 14.0657L5.20269 9.17327C3.65247 8.02127 2.11647 6.86927 0.566247 5.71727C0.409803 5.58927 0.424025 5.39016 0.864914 5.39016L6.48269 5.46127C7.05158 3.72616 7.62047 1.97682 8.18936 0.24171C8.30314 -0.0854007 8.51647 -0.042734 8.61603 0.213266L10.3227 5.53238H16.0969C16.2534 5.53238 16.296 5.66038 16.168 5.74571L13.352 7.76527H10.1662L9.28447 5.06304C9.22758 4.9066 9.12803 4.9066 9.07114 5.06304L8.16091 7.7226L5.16003 7.73682C5.0178 7.73682 5.0178 7.79371 5.13158 7.8506Z" fill="#FF2900"/>
</g>
<defs>
<clipPath id="clip0_484_1260">
<rect width="107.52" height="32" fill="white" transform="translate(0.480469)"/>
</clipPath>
</defs>
</svg>
